<svg width="26" height="29" viewBox="0 0 26 29" fill="none" xmlns="http://www.w3.org/2000/svg">
<path d="M4.8189 28.8497C3.94474 28.8497 3.19641 28.545 2.57391 27.9358C1.95141 27.3265 1.64015 26.5941 1.64015 25.7386V5.51634C1.18983 5.51634 0.812355 5.36726 0.507726 5.06912C0.203096 4.77097 0.0507812 4.40152 0.0507812 3.96078C0.0507812 3.52004 0.203096 3.1506 0.507726 2.85245C0.812355 2.5543 1.18983 2.40523 1.64015 2.40523H7.99764C7.99764 1.96449 8.14996 1.59504 8.45459 1.29689C8.75921 0.998745 9.13669 0.84967 9.58701 0.84967H15.9445C16.3948 0.84967 16.7723 0.998745 17.0769 1.29689C17.3816 1.59504 17.5339 1.96449 17.5339 2.40523H23.8914C24.3417 2.40523 24.7192 2.5543 25.0238 2.85245C25.3284 3.1506 25.4807 3.52004 25.4807 3.96078C25.4807 4.40152 25.3284 4.77097 25.0238 5.06912C24.7192 5.36726 24.3417 5.51634 23.8914 5.51634V25.7386C23.8914 26.5941 23.5801 27.3265 22.9576 27.9358C22.3351 28.545 21.5868 28.8497 20.7126 28.8497H4.8189ZM20.7126 5.51634H4.8189V25.7386H20.7126V5.51634ZM12.7658 17.8052L15.7856 20.7608C16.0769 21.046 16.4478 21.1886 16.8981 21.1886C17.3484 21.1886 17.7193 21.046 18.0107 20.7608C18.3021 20.4756 18.4478 20.1126 18.4478 19.6719C18.4478 19.2312 18.3021 18.8682 18.0107 18.583L14.9909 15.6274L18.0107 12.6719C18.3021 12.3867 18.4478 12.0237 18.4478 11.583C18.4478 11.1423 18.3021 10.7793 18.0107 10.4941C17.7193 10.2089 17.3484 10.0663 16.8981 10.0663C16.4478 10.0663 16.0769 10.2089 15.7856 10.4941L12.7658 13.4497L9.74595 10.4941C9.45457 10.2089 9.08371 10.0663 8.63339 10.0663C8.18307 10.0663 7.81221 10.2089 7.52083 10.4941C7.22944 10.7793 7.08375 11.1423 7.08375 11.583C7.08375 12.0237 7.22944 12.3867 7.52083 12.6719L10.5406 15.6274L7.52083 18.583C7.22944 18.8682 7.08375 19.2312 7.08375 19.6719C7.08375 20.1126 7.22944 20.4756 7.52083 20.7608C7.81221 21.046 8.18307 21.1886 8.63339 21.1886C9.08371 21.1886 9.45457 21.046 9.74595 20.7608L12.7658 17.8052Z" fill="white"/>
</svg>
