<svg width="26" height="29" viewBox="0 0 26 29" fill="none" xmlns="http://www.w3.org/2000/svg">
<path d="M3.02756 28.8497C2.32717 28.8497 1.72761 28.6003 1.22885 28.1015C0.730091 27.6028 0.480713 27.0032 0.480713 26.3028C0.480713 25.6024 0.730091 25.0029 1.22885 24.5041C1.72761 24.0054 2.32717 23.756 3.02756 23.756H23.4023C24.1027 23.756 24.7023 24.0054 25.201 24.5041C25.6998 25.0029 25.9491 25.6024 25.9491 26.3028C25.9491 27.0032 25.6998 27.6028 25.201 28.1015C24.7023 28.6003 24.1027 28.8497 23.4023 28.8497H3.02756ZM4.30098 21.2091C3.94018 21.2091 3.63774 21.0871 3.39367 20.843C3.14959 20.599 3.02756 20.2965 3.02756 19.9357V16.975C3.02756 16.8052 3.05939 16.6407 3.12306 16.4816C3.18673 16.3224 3.28224 16.1791 3.40958 16.0518L14.552 4.90934L19.3274 9.68467L8.18491 20.8271C8.05757 20.9545 7.91431 21.05 7.75514 21.1136C7.59596 21.1773 7.43147 21.2091 7.26168 21.2091H4.30098ZM5.5744 18.6623H6.72048L15.7618 9.68467L14.552 8.47492L5.5744 17.5162V18.6623ZM20.76 8.28391L15.9846 3.50857L18.2768 1.21642C18.5102 0.961732 18.8074 0.839695 19.1682 0.850307C19.529 0.860919 19.8261 0.982955 20.0596 1.21642L23.0521 4.20896C23.2856 4.44242 23.4023 4.73424 23.4023 5.08443C23.4023 5.43463 23.2856 5.73706 23.0521 5.99175L20.76 8.28391Z" fill="white"/>
</svg>
